ply
format ascii 1.0
element vertex 451
property float x
property float y
property float z
element edge 450
property int vertex1
property int vertex2
end_header
319891.0 6399790.0 25.0
319894.87382079754 6399792.020628786 60.779601447878576
319892.93691039877 6399794.041257571 66.11789477040395
319892.93691039877 6399792.020628786 78.60390026060989
319894.87382079754 6399792.020628786 85.73762337551486
319896.77054903586 6399795.001922204 78.60404623360424
319900.5020761475 6399794.415673074 82.1800213414725
319902.2966928603 6399795.85005273 75.06225099697363
319902.2966928603 6399795.85005273 68.83420194553715
319904.283031623 6399792.868759312 68.85161638435827
319907.45489590045 6399793.919709086 68.87136698059992
319908.8321434651 6399793.536279205 66.21595942142581
319910.9353428866 6399792.101899549 66.2379658450145
319912.99683292105 6399794.116436073 64.9207353192316
319913.8326152802 6399795.080022821 62.26351943392619
319916.2624268399 6399795.312080574 62.29298598405853
319917.2492363701 6399797.624975179 62.30713234073214
319918.1262153979 6399797.92333326 63.650984545752024
319920.2709824617 6399798.561377649 63.67746097054279
319921.53877049766 6399798.901063957 62.364265678438535
319923.0640945935 6399798.4341319045 62.37990330978372
319924.28503352747 6399799.283164231 63.717695069873045
319925.19426394906 6399800.1714430135 65.05073556814514
319924.8989663441 6399801.882699697 65.04954271309322
319926.06573282555 6399801.964360121 63.72770831171488
319927.42374018225 6399803.018628785 63.73367409113045
319929.6662182575 6399802.019397881 62.4086334391946
319931.1168333169 6399802.129222181 63.732343330639004
319933.7348403066 6399803.056096595 62.404186330693975
319936.2367560909 6399801.6644783225 62.39082321896687
319937.40414802113 6399802.481528437 65.04642336395041
319940.3415455355 6399803.258018441 63.71277715005985
319941.4341615036 6399805.421817295 63.724265256388534
319943.20416708774 6399805.381257185 66.37184373166271
319946.1086727319 6399806.130704203 66.3616491296976
319947.243172792 6399806.920711331 63.7000530767214
319947.7769437713 6399808.57319501 66.35518253261878
319949.5533749184 6399809.814871279 68.99457835445183
319952.4899665351 6399809.539421675 68.96203829093865
319952.52965767606 6399810.8495653365 66.2988834269444
319954.8258290711 6399810.126448622 60.936549814446394
319956.0350428318 6399812.87085603 60.90595500214559
319959.7880913222 6399813.474534344 63.53145880159902
319961.24496841757 6399814.801329372 58.17985934868837
319965.04327289655 6399811.163757824 60.82384323441528
319968.8284354398 6399812.026598978 60.787289621932146
319971.1567208877 6399811.562645105 66.118001296281
319974.1611802986 6399809.18230827 66.10225962846104
319977.47267273674 6399810.638926628 60.725842409506406
319978.57391249645 6399813.823586267 60.72100214855069
319980.35132621916 6399815.091862945 55.354272098844405
319984.60314594634 6399816.246484179 58.008431255000616
319987.07755195076 6399816.132828736 52.63541846856829
319990.3102949216 6399814.631647724 52.617671506153656
319993.8565347012 6399816.187662872 52.60284715482964
319993.9777485703 6399818.885557737 52.602176059439586
319994.8572994059 6399820.195927034 55.28134980821323
319997.18689809204 6399820.298794474 52.59169860991782
319998.0960307273 6399822.476045587 52.58476804848343
319999.6180181781 6399822.857907432 55.262639895282156
320002.1616165418 6399822.036438847 52.57858323886481
320004.4070925427 6399824.485793579 52.576726052883714
320005.4287034557 6399823.282463148 55.26638423884228
320008.446324097 6399822.287935379 52.610170681978374
320010.4423338253 6399822.496738042 57.98991793727161
320013.90526461205 6399824.882093081 58.014362233073456
320015.37218567054 6399827.058645459 52.66572589970983
320018.539609186 6399826.050347883 52.74815275006581
320022.3139659835 6399827.513818026 52.85689474885349
320023.78822405066 6399829.4480867265 54.20999204477077
320026.1189003342 6399830.052024277 51.60241402947794
320029.4910278603 6399830.659781668 51.703191557343345
320030.0903213744 6399832.56042675 51.66230592123905
320030.6663743439 6399833.144052045 52.984289396497104
320032.21505293244 6399833.696898194 52.98757334946111
320032.98924778705 6399835.111464711 53.58433967306299
320034.2288409148 6399835.946225773 54.89033501240148
320035.6882159434 6399835.890406933 54.905893737380104
320036.6041837501 6399836.102174913 54.56406720816648
320036.9804326977 6399836.950281722 54.52623757423672
320037.57646354625 6399836.907808629 53.862668251890895
320037.2815416503 6399838.61445925 54.12836049526787
320037.0395892038 6399839.709810734 52.747055556143614
320038.2722939879 6399840.010524606 52.07221113166524
320039.95970756665 6399841.180336358 51.361939327932134
320039.97128264094 6399843.801768166 51.26110109186379
320040.8614840973 6399845.6710354565 53.88887670141156
320044.28394431394 6399847.191576976 52.496561955774425
320045.5292316483 6399851.003389016 55.07924479476991
320047.8136835516 6399853.020394032 52.33296600184863
320051.89129286085 6399854.042374697 52.299565108599445
320053.67486024497 6399856.625246195 52.226793048593905
320055.70623448596 6399856.842386907 54.926256283050584
320058.67141696217 6399856.243943103 52.223528859280705
320060.04721942684 6399857.9173436565 53.53660754143938
320061.18480505643 6399858.378579148 50.81472284222641
320062.99176894815 6399857.869584978 50.81079358040134
320063.83789115876 6399858.838548544 50.78652524063252
320063.8920182465 6399860.805349083 50.75865476640638
320064.6155235964 6399861.801919961 52.0989874616441
320065.8906563932 6399861.789843449 50.7359825112339
320066.54297494417 6399862.746093392 50.71946789975457
320066.5828881184 6399864.06758244 50.7068502675289
320067.1744287396 6399864.380424093 52.059343889937736
320068.2676485452 6399864.496990297 52.05525740519109
320068.9750654824 6399865.465551019 52.046993625138185
320069.66209981573 6399865.773092708 53.40073855815581
320070.83724380255 6399865.613583216 53.39849858606917
320071.9049150653 6399866.196156811 53.3935737295169
320071.6743880872 6399867.370631161 53.389846908270144
320071.93197076244 6399868.078054329 52.02941916671911
320072.8729470208 6399868.8561088955 53.38357683202253
320073.55634060386 6399868.926740293 52.02509064573954
320073.5192969857 6399870.306179883 50.664518542364135
320074.99224318686 6399870.7962866295 50.662811182904164
320075.781795805 6399871.215761978 52.0197729410979
320076.2496608869 6399872.163316703 50.6602996658579
320077.4373782286 6399872.441451449 50.659702817831494
320078.39957026497 6399871.908173115 50.6601310613187
320079.0400747652 6399871.902974158 52.01790244228562
320080.024111844 6399872.487910434 50.65915667055512
320081.3117831041 6399872.218741631 52.01715665553811
320082.2614108248 6399872.493572658 50.658695117550046
320082.8208901922 6399873.638162228 50.657925825983334
320083.62368438655 6399874.291768218 50.65770046625172
320084.77410072344 6399874.166878734 52.01576555910701
320084.9707997757 6399875.135788931 53.37350192004662
320085.9446467159 6399876.448138836 52.015094732642694
320086.7217946039 6399876.791578544 53.373111211943126
320086.4934396124 6399877.770751367 52.014850268073204
320087.24502069183 6399878.963401972 52.01469342855653
320088.3766541605 6399879.047833314 52.01480011780683
320089.06635368086 6399879.543956633 53.3728742330064
320089.7460187243 6399880.837654356 53.37278500602217
320091.10696265317 6399880.891545674 52.01486824945623
320091.75264025317 6399881.298524572 53.37296832152285
320092.109771941 6399882.599258909 53.37288250747416
320093.13709119376 6399883.005071349 53.37302600870241
320093.50869836967 6399883.801479299 52.01498071125805
320093.6985295423 6399885.094116215 52.01492221759847
320094.79204747715 6399885.343872188 52.01510676712397
320095.2254123239 6399885.690975651 50.657100342276756
320095.43245549785 6399886.545108007 50.65709947546705
320096.3702703089 6399887.238147803 50.65726760020818
320097.43218017486 6399887.103509724 52.015607797540056
320097.7548541359 6399887.945675024 53.373695170766894
320098.71257612336 6399888.889034502 52.015928195341814
320099.3476241498 6399888.990228681 53.374207881488836
320100.7243660146 6399888.703530758 53.375045079454125
320101.7586743142 6399889.452827893 52.01788229413135
320102.6708488196 6399889.631156364 53.3766499267775
320102.3111889884 6399890.488103714 53.37616353653915
320103.3084379817 6399891.697641984 52.01864532071969
320103.3935124696 6399892.728851784 53.37629184207995
320104.58084560814 6399893.237394201 52.019674781737464
320105.1021555143 6399894.70609271 50.66178628415748
320104.5001576637 6399895.833379766 52.018499781088714
320104.936393082 6399896.270868476 53.37680293893154
320105.5259842506 6399897.3740660045 53.37719081971645
320106.8399008552 6399897.3763226 52.02089070034792
320107.6877023434 6399897.8364369385 53.37977362836218
320108.3840992033 6399899.060257391 52.02210607659444
320109.77820093103 6399899.042871029 52.024656922323445
320110.47785692086 6399899.231079148 50.66869327735335
320111.04473677895 6399900.294997225 52.0270494806089
320110.91196064715 6399901.170707183 50.668182077307556
320112.36549550376 6399901.054076055 50.672452328225354
320112.92419356096 6399902.419109676 50.672315056808735
320112.3806111302 6399903.660866484 50.66860616793705
320113.0720853192 6399904.1501901485 52.02735100747356
320113.7087256466 6399905.437749452 50.66902461526433
320114.65840790793 6399905.534798634 50.67109343595643
320114.6035740464 6399906.333034274 52.02722096934878
320115.1230299664 6399907.530420396 50.668501876760565
320115.697319748 6399907.929570877 52.026851257316494
320116.8520397546 6399908.171191929 50.67113179323079
320117.5476333477 6399909.637645669 52.02762786849849
320118.1736470326 6399910.339352523 50.669816343761404
320119.2541203452 6399910.51703308 50.67230717538405
320119.98654949764 6399911.478917741 50.6722375890258
320119.92760982504 6399912.63955895 50.66951674404818
320120.32312978024 6399913.276173862 52.02712289971833
320121.3248908334 6399913.968321942 50.6704075228496
320121.4469501235 6399915.197956012 50.66889740471794
320121.8603351511 6399915.8936235495 52.02680040781893
320123.0752417493 6399916.542822362 52.02890889118654
320123.31427972775 6399917.859936158 53.38596244813746
320123.74617377657 6399918.536915585 52.028606057513905
320124.98672086257 6399919.13379362 52.031773841934644
320125.46371735795 6399920.555385333 50.67486547948171
320124.73067225155 6399921.444598569 50.67194207785277
320124.80628018227 6399922.253710412 52.02951666739757
320125.3309150159 6399923.699667219 52.03018010878601
320125.7799419188 6399924.336512182 50.673348573596265
320127.0955270735 6399925.05045575 50.67723619097494
320127.388554199 6399926.4134329595 50.67717083994939
320126.59789484506 6399927.201826493 50.67376174704899
320127.2129111541 6399927.816990457 52.03284320840834
320126.673793743 6399928.067318633 53.388482888084376
320127.44124488416 6399929.256476356 52.03292188729236
320128.1327971274 6399929.580141939 53.392832522651716
320127.64315592503 6399930.626075624 53.39082693880805
320128.75656380516 6399931.586813805 53.39393732746032
320129.178419442 6399932.223886404 52.0375103273915
320128.97756636044 6399933.360077363 53.39254517624707
320130.21008043276 6399934.305517146 53.395085082575854
320131.8090293994 6399934.351023349 52.042886262125265
320132.7852696477 6399934.895647911 53.4018454304128
320133.6151301853 6399936.196302353 53.40047900657471
320135.03742329986 6399936.443076154 52.02960597095545
320135.65205856715 6399936.925532499 53.37227982568642
320136.28119151376 6399937.909104645 51.99642266031436
320136.2956891932 6399938.410220446 53.35296159253272
320137.9747597876 6399938.364379145 51.958357533110785
320138.64481739403 6399939.502487227 51.9379368092377
320139.3003773211 6399940.139479509 50.55852666628147
320141.33090606646 6399940.64148873 50.4696495031217
320142.3194545735 6399942.747394779 50.40224862988443
320143.5560010907 6399943.9429249745 53.070718464899414
320146.4037451701 6399944.627246344 54.27828915248162
320147.577115527 6399947.345534104 56.922409581773124
320148.88890818506 6399948.733308607 54.06678543781604
320152.0806988012 6399950.0532239955 56.54748824312665
320153.7172727886 6399953.395913555 56.37770333474893
320155.65325168014 6399954.839619786 53.39043248985121
320154.4879989977 6399956.911203545 50.75471314235427
320156.4702247639 6399959.354736888 53.36672059267283
320158.7589460758 6399959.761248229 53.15059675681552
320159.8264337717 6399960.727777984 55.93919205616305
320160.4480557242 6399963.3044223385 53.17856585314222
320162.48525844206 6399964.139663559 53.13137838588378
320163.5012203387 6399965.008202138 50.31553074516279
320164.39165007684 6399967.990757335 53.12633020748148
320164.26611791836 6399970.104773952 50.300919677548656
320167.18211732036 6399970.345599612 50.24564610533578
320169.03106856754 6399972.386146311 53.051656388858135
320171.0055519733 6399972.312676392 50.22833665374118
320171.45270433405 6399974.66891215 53.006978768731514
320175.39912353014 6399975.791579237 53.00113756569772
320177.37105932046 6399976.9877162445 55.81986778414526
320178.67864128336 6399979.074740533 55.80948048113241
320181.0495761315 6399979.872373404 55.80704555870445
320183.1653503718 6399979.792546662 55.80666777696561
320184.6167707846 6399980.603607202 52.97423654156138
320185.6051494786 6399982.330945367 55.805305239094395
320187.14432085655 6399983.101259867 55.822869739772884
320187.68344375497 6399983.960100433 61.482904190650835
320188.25273458107 6399985.8578027 61.540705410354995
320190.2845761777 6399986.798764917 64.37891520815998
320191.3142531571 6399987.797164191 61.592169670423246
320191.8474700672 6399989.896060929 61.728807981520426
320193.3665314662 6399991.572223996 61.89526259466121
320193.88608381344 6399993.288849489 64.8300537926262
320192.7294108012 6399996.539968833 64.99104056734416
320194.0029573296 6399999.813992916 67.93473174005628
320194.2604914415 6400002.47188897 62.614079223217786
320192.6551602521 6400005.795626089 65.45589011424994
320193.74951754644 6400009.053963807 62.83437629359008
320196.7989044463 6400010.334265335 62.92227712352181
320197.98542604485 6400012.280407927 57.57884348892078
320198.096218962 6400015.947592487 60.34753810588049
320200.81518500193 6400017.70907047 60.422141277241764
320201.5082272664 6400019.659341376 55.048332200032306
320200.86524008744 6400022.763711385 55.00775871265097
320202.81479583593 6400025.212194866 52.283600766655695
320205.8572780661 6400024.608189711 55.05602849182392
320206.03806286876 6400026.8274442535 57.69384193790695
320208.06568815355 6400029.094956863 57.64614263241951
320208.63473956496 6400032.487331591 56.08912814255178
320210.7294589606 6400034.210545727 58.68209025798042
320214.0390129299 6400035.178009866 58.62792346520381
320215.29099475 6400036.816111235 58.517602641804956
320214.60194543115 6400038.099315346 58.43694612531367
320215.12773068604 6400038.626769462 57.04502577261048
320216.4034419689 6400039.114251387 57.02414879218847
320216.3659403962 6400040.695479808 56.97554628418041
320217.11586642417 6400040.655507619 58.34909489411224
320218.3779569584 6400040.928169518 58.34090238506458
320218.89012146473 6400041.240803607 61.07805904844965
320219.9235906345 6400042.936303502 61.05902035421905
320222.3334004976 6400042.538679198 61.0608530824382
320222.8547051611 6400043.9215450045 63.801133795270424
320224.80162120826 6400045.69802321 65.1678339932492
320226.2272325919 6400046.09163561 62.41785674222506
320228.5442777157 6400045.308339147 62.42026534935646
320231.52891524 6400046.636507763 65.1678441214618
320233.1760882666 6400049.205284629 65.16526090780381
320235.7146950334 6400050.597152632 67.91511117226315
320239.8105101533 6400051.332482325 67.91814766436244
320241.96597497305 6400053.701765057 67.9205764152079
320240.35597831896 6400055.857001226 65.16795912311906
320242.599093257 6400056.732739771 59.67377086282815
320243.20904679876 6400059.342660785 59.67847397231978
320245.9782193399 6400060.80588319 56.930932560976636
320250.13699834235 6400060.620607662 59.69304487651236
320252.66261594853 6400062.169514605 54.21787397025861
320255.30085713905 6400066.600973742 59.737843325962885
320255.41348072345 6400069.483525936 54.26588384443376
320253.44899941 6400072.739223378 54.249331267133385
320254.6646256995 6400078.112718806 54.42682094582534
320257.3837853119 6400079.965489138 60.017592933161545
320258.02584002644 6400082.191404715 54.670958459075884
320258.86402210593 6400087.053336505 54.88051233594091
320262.4437901063 6400088.1207363885 54.98101899660967
320264.4321577933 6400089.990438705 60.462840816678785
320265.73553510534 6400094.897474376 55.121322250752954
320268.9306817863 6400097.0746990135 55.15052861982193
320270.33358814527 6400100.018237543 60.53157131598921
320270.43232088396 6400104.602944702 55.13435401731207
320272.84998807835 6400106.670176974 55.136020193566104
320276.23091144476 6400105.287336433 55.16519193375371
320276.56068190513 6400107.448363526 60.532315180985435
320278.6909738594 6400110.305798202 60.519612828016264
320280.4914953532 6400111.002205786 55.13026046308849
320279.51752864115 6400115.2347973315 55.06236152406903
320282.21084617666 6400117.644415848 60.43000131879401
320283.1036422184 6400119.357626781 55.008262730272605
320283.0177784398 6400123.357776394 54.89999710806707
320285.7983391121 6400125.1494542565 54.86275475646549
320286.6585948224 6400126.861406143 60.24258219871564
320286.7957248695 6400130.349147331 54.75040735010053
320289.5559878397 6400131.453663375 60.180928477527694
320290.4773352793 6400133.133166216 54.71872231425097
320290.6761479378 6400136.582926847 54.650614812803084
320293.2707451246 6400138.73390984 54.64081211797723
320296.5336354973 6400138.512872069 60.108367679199254
320299.07399108895 6400140.062092089 54.67711601987199
320301.82223690266 6400143.457910057 54.66220434427229
320305.3653849048 6400144.161394713 54.66292121030659
320307.31830139924 6400145.562928802 60.084914939236185
320308.87503699627 6400148.703058474 57.36153642187883
320313.0261826655 6400150.171560895 60.11797926577686
320315.43230206234 6400152.085127175 54.71793655600045
320316.5032529719 6400155.026695861 57.47356854644631
320319.2596042162 6400156.888561074 56.15112589897662
320319.2136551663 6400158.575455589 58.873567915945515
320322.04804168263 6400158.336054569 58.88800867296312
320323.1066839654 6400160.585634124 57.550628357160086
320324.21127529815 6400161.148319165 58.91290448768153
320323.0757245434 6400162.999630444 58.91639780234839
320323.96973450866 6400164.455231367 58.92576173934901
320324.95345167705 6400164.942458559 58.93029330403301
320325.24219383684 6400165.8200188605 57.5802548183811
320325.9661834353 6400165.248942208 56.22789999084569
320326.75397985755 6400166.111679293 56.23420406343869
320326.6722822705 6400167.317489524 56.23596231945343
320326.8152507547 6400167.967578685 57.59105520312908
320327.5875200319 6400168.635386989 57.5944975145386
320327.62020400923 6400169.895845869 57.59625284552607
320328.0089737649 6400170.49139237 58.95173939267431
320329.09007861785 6400171.037880335 58.95494394555148
320329.119970902 6400172.177534046 58.95601190372494
320329.3903942235 6400172.739360399 57.60400644926653
320330.495623771 6400172.988480217 58.95911925102605
320330.74128733575 6400173.910958367 58.95986479701588
320331.4088626765 6400174.222551628 57.60784151414015
320332.5266404975 6400174.535689815 57.609488433884735
320332.3919697085 6400175.685439251 56.256658092513746
320332.4245298048 6400176.210888892 57.60966445609142
320333.02533874067 6400176.636952794 56.25791630080182
320332.9212860779 6400177.507270933 56.25771228351494
320333.48953491746 6400177.407885195 57.61153526365173
320334.26966477867 6400177.769875328 56.259934685135875
320334.48154580034 6400178.2312512 57.61291993127987
320334.633627824 6400179.196480956 57.613077059465695
320335.5218261089 6400179.494541408 57.61473894524513
320335.462027111 6400179.998395292 56.26193225385775
320335.6238671253 6400180.944334936 56.26179866717515
320335.8455061376 6400181.386420695 57.614487802281836
320336.7368791515 6400181.50132381 56.263752528120655
320336.9558966029 6400182.286923684 56.26448627724478
320336.5068927185 6400183.229965927 56.26280248594169
320336.72762283566 6400183.845825526 57.6159103688555
320337.4738887668 6400184.443132552 56.26517647605277
320337.7118969649 6400185.462974944 56.26521299298071
320338.2374327787 6400185.444422373 57.61935267167246
320338.20801062795 6400185.98910171 58.971490340376036
320339.2071660011 6400186.239288041 58.97472486865858
320339.65231464023 6400187.1081044935 58.9759296798011
320340.1268854302 6400187.432241607 57.625161114668586
320341.19433838245 6400187.669358907 57.6311435710612
320341.5960752051 6400188.688788946 57.63252751885523
320342.02628294786 6400189.108141435 56.282431297289776
320341.25657946646 6400189.693031425 57.62965102401079
320341.3043226941 6400190.669117243 57.62986446832497
320341.9937352109 6400191.2088288255 57.63282069511268
320341.61127069575 6400191.765562154 58.983104747674595
320341.5525524057 6400192.831703578 57.63026688088433
320341.87629863084 6400193.341111673 58.98372009893792
320342.65071043087 6400193.7556764595 58.98750406811352
320342.8158584172 6400194.60551875 58.98795102655774
320343.1221081485 6400195.007448883 57.63707726507727
320343.8996798263 6400195.238182436 57.64331958281137
320344.2554061735 6400196.399349545 57.64534653343034
320344.75554836425 6400197.063743213 56.29735529459852
320345.86956437724 6400197.290851855 56.30788963223124
320346.6426829762 6400198.521373202 56.31320534260561
320346.0574955087 6400199.793911232 56.30553198980567
320346.08618186344 6400200.629164235 57.656040895290346
320347.60929559893 6400201.836348184 57.66637923061261
320346.92243602383 6400203.11188045 57.65820203461026
320346.95118844847 6400203.947090811 59.00918994351134
320347.7547228953 6400205.804523431 57.662075633878615
320348.5295049174 6400206.826745691 59.0185351201652
320350.42153212894 6400207.465962882 59.03023697517398
320350.35456282645 6400209.641027965 57.67482675726064
320350.97848645796 6400210.330591371 59.0286495099916
320353.3139551441 6400211.158613374 59.03785108518962
320353.7811342337 6400213.910719239 59.03517504911751
320354.7416348813 6400215.590256628 56.33574006390579
320357.4589957327 6400217.280667184 57.692416524535645
320357.7133947894 6400220.293392669 57.688801896043614
320358.7188382531 6400221.765039362 54.989331414704466
320361.90505267424 6400222.588401904 54.99191478850824
320363.6975496719 6400225.254417691 52.28448170194086
320366.2414634097 6400226.4596599545 54.982318970020394
320370.0682893763 6400226.737680869 53.6287442548126
320372.00875795237 6400228.46982636 54.97348505582731
320372.3449032088 6400230.5766411815 54.9708568684161
320371.77898396685 6400233.115035437 56.320740508014275
320372.7903905206 6400235.532048771 53.616391648885745
320374.86935832776 6400237.346888344 54.963497599249514
320375.4849094269 6400238.628069087 54.96163536692547
320375.5084825248 6400240.249154046 54.96007184448944
320376.5996168761 6400241.268065243 57.65983191991662
320378.41210974025 6400241.616772082 56.30609136384912
320379.02236314927 6400242.57224169 56.30459703398651
320379.06422615226 6400243.873510808 56.303103264514974
320379.82744766807 6400244.504575565 57.653174495094746
320381.00447239995 6400244.898757881 57.65221801896659
320381.45356679516 6400245.812546851 57.65125953871669
320381.0606911738 6400246.70016483 56.298722551727124
320381.08161876875 6400247.350900366 57.649738080590986
320381.5242227429 6400248.113977573 56.297508505571216
320381.1380580716 6400249.152612839 56.295663725853565
320381.1591597732 6400249.803556074 57.646075030228594
320381.59519758564 6400250.41605253 57.64503937776619
320381.4698759814 6400251.672421991 57.64290588551338
320381.7451290548 6400252.390189889 58.994014220433485
320382.76224674797 6400252.855152054 58.99419062211334
320383.44329408224 6400254.802860128 58.99311478058917
320382.16711577825 6400256.305256518 58.99188377051759
320381.6328020939 6400257.554847173 56.28763021426819
320381.8787822659 6400261.181323625 54.93344534577753
320382.6590761221 6400263.55820942 60.340187396165426
320385.4732150337 6400265.490293449 63.04136024261607
320386.93230988923 6400269.434294464 65.73813434546942
320385.04852265434 6400272.340986439 65.73188788921854
320387.0823677098 6400273.850004397 60.3129803592366
320389.11621276516 6400277.263092304 65.71125142553171
320390.0 6400280.0 65.0
0 1
1 2
2 3
3 4
4 5
5 6
6 7
7 8
8 9
9 10
10 11
11 12
12 13
13 14
14 15
15 16
16 17
17 18
18 19
19 20
20 21
21 22
22 23
23 24
24 25
25 26
26 27
27 28
28 29
29 30
30 31
31 32
32 33
33 34
34 35
35 36
36 37
37 38
38 39
39 40
40 41
41 42
42 43
43 44
44 45
45 46
46 47
47 48
48 49
49 50
50 51
51 52
52 53
53 54
54 55
55 56
56 57
57 58
58 59
59 60
60 61
61 62
62 63
63 64
64 65
65 66
66 67
67 68
68 69
69 70
70 71
71 72
72 73
73 74
74 75
75 76
76 77
77 78
78 79
79 80
80 81
81 82
82 83
83 84
84 85
85 86
86 87
87 88
88 89
89 90
90 91
91 92
92 93
93 94
94 95
95 96
96 97
97 98
98 99
99 100
100 101
101 102
102 103
103 104
104 105
105 106
106 107
107 108
108 109
109 110
110 111
111 112
112 113
113 114
114 115
115 116
116 117
117 118
118 119
119 120
120 121
121 122
122 123
123 124
124 125
125 126
126 127
127 128
128 129
129 130
130 131
131 132
132 133
133 134
134 135
135 136
136 137
137 138
138 139
139 140
140 141
141 142
142 143
143 144
144 145
145 146
146 147
147 148
148 149
149 150
150 151
151 152
152 153
153 154
154 155
155 156
156 157
157 158
158 159
159 160
160 161
161 162
162 163
163 164
164 165
165 166
166 167
167 168
168 169
169 170
170 171
171 172
172 173
173 174
174 175
175 176
176 177
177 178
178 179
179 180
180 181
181 182
182 183
183 184
184 185
185 186
186 187
187 188
188 189
189 190
190 191
191 192
192 193
193 194
194 195
195 196
196 197
197 198
198 199
199 200
200 201
201 202
202 203
203 204
204 205
205 206
206 207
207 208
208 209
209 210
210 211
211 212
212 213
213 214
214 215
215 216
216 217
217 218
218 219
219 220
220 221
221 222
222 223
223 224
224 225
225 226
226 227
227 228
228 229
229 230
230 231
231 232
232 233
233 234
234 235
235 236
236 237
237 238
238 239
239 240
240 241
241 242
242 243
243 244
244 245
245 246
246 247
247 248
248 249
249 250
250 251
251 252
252 253
253 254
254 255
255 256
256 257
257 258
258 259
259 260
260 261
261 262
262 263
263 264
264 265
265 266
266 267
267 268
268 269
269 270
270 271
271 272
272 273
273 274
274 275
275 276
276 277
277 278
278 279
279 280
280 281
281 282
282 283
283 284
284 285
285 286
286 287
287 288
288 289
289 290
290 291
291 292
292 293
293 294
294 295
295 296
296 297
297 298
298 299
299 300
300 301
301 302
302 303
303 304
304 305
305 306
306 307
307 308
308 309
309 310
310 311
311 312
312 313
313 314
314 315
315 316
316 317
317 318
318 319
319 320
320 321
321 322
322 323
323 324
324 325
325 326
326 327
327 328
328 329
329 330
330 331
331 332
332 333
333 334
334 335
335 336
336 337
337 338
338 339
339 340
340 341
341 342
342 343
343 344
344 345
345 346
346 347
347 348
348 349
349 350
350 351
351 352
352 353
353 354
354 355
355 356
356 357
357 358
358 359
359 360
360 361
361 362
362 363
363 364
364 365
365 366
366 367
367 368
368 369
369 370
370 371
371 372
372 373
373 374
374 375
375 376
376 377
377 378
378 379
379 380
380 381
381 382
382 383
383 384
384 385
385 386
386 387
387 388
388 389
389 390
390 391
391 392
392 393
393 394
394 395
395 396
396 397
397 398
398 399
399 400
400 401
401 402
402 403
403 404
404 405
405 406
406 407
407 408
408 409
409 410
410 411
411 412
412 413
413 414
414 415
415 416
416 417
417 418
418 419
419 420
420 421
421 422
422 423
423 424
424 425
425 426
426 427
427 428
428 429
429 430
430 431
431 432
432 433
433 434
434 435
435 436
436 437
437 438
438 439
439 440
440 441
441 442
442 443
443 444
444 445
445 446
446 447
447 448
448 449
449 450
